<?xml version="1.0" standalone="no"?>
<!DOCTYPE svg PUBLIC "-//W3C//DTD SVG 20010904//EN"
 "http://www.w3.org/TR/2001/REC-SVG-20010904/DTD/svg10.dtd">
<svg version="1.0" xmlns="http://www.w3.org/2000/svg"
 width="393.000000pt" height="842.000000pt" viewBox="0 0 393.000000 842.000000"
 preserveAspectRatio="xMidYMid meet">

<g transform="translate(0.000000,842.000000) scale(0.100000,-0.100000)"
fill="#000000" stroke="none">
<path d="M250 6795 l0 -65 43 -1 c23 -1 46 -1 50 0 4 1 38 -17 74 -39 37 -22
72 -40 78 -40 6 0 27 -12 46 -26 19 -14 43 -30 54 -35 l20 -10 -20 17 c-14 11
-16 18 -7 21 9 3 12 38 12 124 l0 119 -175 0 -175 0 0 -65z"/>
<path d="M610 6745 c0 -63 3 -115 8 -115 4 0 17 3 30 6 21 6 22 10 20 118 l-2
111 -3 -107 c-5 -140 -23 -142 -23 -3 0 87 -3 105 -15 105 -12 0 -15 -19 -15
-115z"/>
<path d="M690 6832 c0 -16 3 -64 7 -106 l6 -77 41 3 c39 3 41 5 56 50 16 52
25 56 71 32 32 -16 37 -51 6 -46 -11 2 -15 -2 -11 -12 3 -9 -3 -17 -18 -22
l-23 -8 25 -6 c19 -5 30 0 45 19 11 14 19 29 18 33 -2 4 5 13 15 19 14 9 16
22 14 80 l-4 69 -124 0 -124 0 0 -28z"/>
<path d="M970 6796 c0 -58 2 -64 23 -70 12 -3 25 -6 30 -6 4 0 7 32 7 70 l0
70 -30 0 -30 0 0 -64z"/>
<path d="M1040 6785 c0 -71 1 -75 25 -81 27 -7 59 13 114 70 l35 36 -41 0
c-53 0 -93 15 -93 35 0 8 -9 15 -20 15 -18 0 -20 -7 -20 -75z"/>
<path d="M1620 6817 c0 -37 -6 -48 -44 -86 l-43 -42 -124 1 c-68 1 -141 4
-161 7 -41 6 -42 4 -52 -58 l-6 -35 35 4 c34 4 35 3 35 -29 0 -26 10 -43 50
-83 l50 -51 165 3 165 3 0 204 0 205 -35 0 c-35 0 -35 -1 -35 -43z"/>
<path d="M1708 6643 l-3 -218 -163 -3 -163 -3 20 -28 c12 -16 21 -43 21 -59 0
-59 5 -62 99 -64 l86 -2 -77 -3 c-79 -4 -86 -9 -68 -44 8 -14 22 -19 58 -21
l47 -1 -43 -6 c-42 -6 -42 -6 -27 -28 l16 -22 22 22 22 22 3 -42 c5 -64 21
-52 25 20 2 34 2 2 -1 -70 -3 -80 -1 -133 5 -133 5 0 35 25 66 55 31 30 63 55
72 55 13 0 15 46 15 395 0 342 -2 395 -15 395 -12 0 -15 -33 -17 -217z"/>
<path d="M1015 6660 c-22 -4 -31 -8 -20 -10 28 -3 48 0 60 11 5 5 7 8 5 8 -3
-1 -23 -5 -45 -9z"/>
<path d="M770 6629 c0 -5 5 -7 10 -4 6 3 10 8 10 11 0 2 -4 4 -10 4 -5 0 -10
-5 -10 -11z"/>
<path d="M803 6608 c15 -10 103 -10 93 0 -4 4 -30 7 -57 7 -27 1 -43 -3 -36
-7z"/>
<path d="M628 6573 c7 -3 16 -2 19 1 4 3 -2 6 -13 5 -11 0 -14 -3 -6 -6z"/>
<path d="M1220 6566 c0 -2 7 -7 16 -10 8 -3 12 -2 9 4 -6 10 -25 14 -25 6z"/>
<path d="M340 6410 c-8 -6 -32 -10 -52 -10 l-38 0 0 -110 c0 -103 -1 -110 -20
-110 -17 0 -20 -7 -20 -47 1 -43 2 -46 14 -30 8 10 24 55 36 100 23 86 58 164
86 191 19 20 15 29 -6 16z"/>
<path d="M1350 6227 c18 -37 36 -90 41 -119 4 -29 11 -68 15 -86 l6 -33 62 3
61 3 -1 36 c-1 19 -4 49 -8 65 -7 27 -8 27 -18 9 -29 -54 -88 -88 -88 -51 0
22 18 29 23 9 4 -14 5 -13 6 5 1 15 7 22 21 22 21 0 25 16 14 58 -4 14 -14 22
-29 22 -18 0 -21 5 -18 23 4 18 -4 27 -39 46 -24 13 -51 31 -61 39 -13 12 -9
-2 13 -51z"/>
<path d="M1291 6084 c0 -11 3 -14 6 -6 3 7 2 16 -1 19 -3 4 -6 -2 -5 -13z"/>
<path d="M230 6061 c0 -11 -4 -23 -10 -26 -6 -3 -10 -50 -10 -106 0 -77 3 -99
14 -99 10 0 13 26 13 125 0 69 -2 125 -4 125 -2 0 -3 -9 -3 -19z"/>
<path d="M1292 6035 c0 -16 2 -22 5 -12 2 9 2 23 0 30 -3 6 -5 -1 -5 -18z"/>
<path d="M718 6004 c-8 -8 -21 -16 -29 -18 -8 -1 -24 -8 -37 -15 -13 -7 -30
-10 -37 -7 -8 3 -17 0 -21 -7 -4 -7 -4 -9 1 -5 4 4 14 3 22 -3 10 -9 17 -8 28
1 9 7 34 15 55 17 31 3 40 1 40 -11 0 -19 -31 -21 -48 -4 -9 9 -12 5 -12 -19
0 -28 3 -30 28 -28 16 1 34 5 40 9 7 4 22 5 35 1 l22 -6 -23 20 c-20 17 -21
23 -10 41 10 15 19 19 38 15 23 -6 24 -5 9 10 -22 22 -82 28 -101 9z"/>
<path d="M1044 5995 c-7 -11 -17 -35 -20 -53 l-7 -32 29 14 c15 8 31 13 35 10
4 -2 7 8 6 23 -3 35 24 42 52 14 12 -12 21 -16 21 -10 0 6 6 7 13 2 6 -4 1 7
-13 24 -21 26 -32 31 -63 31 -28 -1 -43 -7 -53 -23z m16 -35 c0 -5 -4 -10 -10
-10 -5 0 -10 5 -10 10 0 6 5 10 10 10 6 0 10 -4 10 -10z"/>
<path d="M1429 5948 c6 -18 19 -24 52 -29 l44 -6 -40 -3 c-32 -2 -35 -4 -12
-7 27 -4 35 -17 17 -28 -5 -3 2 -17 18 -30 l27 -23 6 56 c3 31 9 65 13 75 7
15 1 17 -63 17 -69 0 -70 -1 -62 -22z"/>
<path d="M1596 5866 c1 -50 2 -51 33 -54 28 -3 31 -1 31 27 0 25 5 30 28 34
24 4 24 4 -6 6 -19 0 -46 10 -60 20 l-27 19 1 -52z"/>
<path d="M210 5595 c0 -218 1 -225 20 -225 19 0 20 -7 20 -245 l0 -245 -127 0
-128 -1 35 -27 c65 -50 103 -97 138 -170 29 -61 35 -87 40 -160 6 -117 -7
-173 -77 -322 -83 -177 -82 -170 -26 -170 43 0 45 -1 35 -20 -8 -16 -21 -20
-57 -20 l-46 0 7 -77 c3 -42 8 -78 10 -81 3 -2 31 14 63 37 33 23 62 41 66 41
3 0 21 -13 39 -29 49 -42 146 -89 208 -99 178 -32 304 -61 358 -84 59 -24 78
-23 23 2 -41 19 -43 22 -38 54 5 34 5 35 -41 45 -26 6 -78 13 -117 17 -86 8
-220 38 -279 64 -24 10 -60 35 -80 55 -42 42 -40 49 28 126 23 25 63 84 91
130 27 46 68 108 91 136 23 29 44 58 47 65 3 9 10 7 27 -7 18 -16 37 -20 104
-21 44 0 91 -4 103 -8 13 -4 36 1 62 15 32 17 61 21 134 23 83 1 99 -2 169
-31 42 -18 89 -33 105 -33 47 0 54 -11 53 -76 -3 -121 -21 -281 -40 -354 -10
-41 -21 -103 -24 -138 -7 -72 -19 -102 -44 -102 -9 0 -55 11 -102 25 -46 13
-86 22 -88 20 -2 -2 14 -9 37 -16 47 -14 49 -19 21 -44 -20 -18 -20 -19 -3
-29 10 -5 53 -11 96 -11 43 -1 81 -6 86 -11 5 -5 28 -52 51 -104 33 -72 60
-114 114 -174 l70 -78 -29 -55 c-41 -78 -47 -83 -118 -83 -34 0 -91 -9 -125
-20 -91 -29 -169 -27 -212 5 -30 22 -44 25 -117 25 -82 0 -82 0 -73 -22 5 -13
11 -35 14 -50 8 -35 38 -37 60 -6 l16 22 23 -22 c13 -12 31 -22 41 -22 16 0
17 -6 12 -37 -13 -69 -14 -71 -68 -78 -30 -4 -45 -10 -38 -15 9 -6 9 -9 -1
-16 -7 -4 -14 -3 -17 4 -4 13 -53 5 -63 -10 -3 -5 -11 -2 -18 6 -7 9 -40 21
-72 28 -32 7 -59 15 -59 20 0 4 -6 6 -12 4 -7 -1 -10 -1 -6 1 5 3 8 14 8 24 0
11 -4 17 -10 14 -5 -3 -11 0 -11 7 -1 7 -4 -3 -8 -22 -6 -34 -7 -35 -104 -61
-100 -27 -154 -56 -149 -81 1 -7 -7 -2 -18 11 -11 13 -20 33 -20 45 -1 11 -17
62 -36 111 -67 170 -101 279 -138 437 -5 24 -10 27 -35 22 -16 -4 -32 -1 -35
5 -4 6 -11 11 -17 11 -5 0 -9 -196 -9 -505 l0 -505 116 0 c124 0 120 -2 81 52
-18 24 -19 33 -9 99 6 40 8 77 5 82 -3 6 -1 7 5 3 8 -4 16 4 23 21 12 32 57
83 73 83 6 0 21 -35 34 -78 l22 -78 -20 -42 c-30 -62 -43 -133 -30 -167 15
-39 5 -43 -28 -11 -29 26 -30 27 -153 23 l-124 -3 128 -2 127 -2 0 -160 0
-160 695 0 695 0 0 1415 0 1415 50 0 50 0 0 260 0 260 -65 0 -66 0 3 58 3 57
63 3 62 3 0 54 c0 48 -2 55 -20 55 -18 0 -20 7 -20 75 l0 75 -25 -16 c-27 -18
-138 -24 -187 -11 -27 7 -28 6 -28 -33 0 -24 5 -40 12 -40 6 0 9 -3 6 -6 -4
-3 -16 -1 -27 6 -12 6 -26 8 -32 4 -16 -10 28 -36 50 -29 25 8 89 -34 97 -62
3 -13 10 -23 14 -23 14 0 21 -32 14 -66 -3 -19 -12 -34 -20 -34 -8 0 -31 -9
-51 -20 -34 -18 -37 -23 -34 -60 2 -34 0 -40 -22 -45 -36 -9 -127 39 -127 66
0 18 -2 19 -15 9 -8 -7 -15 -24 -15 -39 0 -33 -15 -58 -24 -42 -16 26 -25 8
-10 -20 9 -18 27 -61 41 -97 21 -58 22 -67 9 -74 -9 -5 -23 -22 -31 -38 -9
-17 -16 -31 -18 -33 -1 -2 15 -23 36 -47 48 -56 50 -80 3 -45 -29 22 -59 18
-86 -10 -31 -33 -73 -31 -78 3 -4 26 -13 27 -52 7 -27 -14 -30 -14 -30 0 0 8
-4 15 -10 15 -5 0 -10 -4 -10 -10 0 -20 -57 -10 -80 15 -12 13 -26 22 -31 19
-12 -7 8 55 26 83 16 24 16 24 -16 21 -28 -3 -34 -8 -42 -38 -27 -110 -27
-110 -53 -110 -21 0 -23 -3 -14 -19 12 -24 13 -54 1 -46 -5 3 -12 18 -16 34
-6 27 -8 28 -34 18 -25 -9 -29 -17 -38 -76 -5 -36 -13 -75 -18 -85 -6 -13 -5
-17 3 -12 6 4 14 23 18 42 4 25 9 32 15 23 9 -15 13 -6 23 50 5 27 3 32 -9 27
-8 -3 -15 -1 -15 4 0 9 7 11 38 10 4 0 10 -12 14 -27 9 -34 -17 -94 -38 -86
-9 3 -14 -1 -14 -12 0 -10 5 -13 12 -9 7 4 8 3 4 -5 -4 -6 -11 -9 -16 -6 -4 3
-13 -2 -20 -10 -7 -8 -16 -12 -21 -9 -5 3 -12 -2 -15 -10 -10 -26 -22 -9 -22
30 0 25 3 33 9 23 6 -9 9 6 9 43 l0 57 -29 -16 c-27 -16 -29 -16 -56 5 -15 12
-36 22 -45 22 -10 0 -34 7 -53 15 -40 16 -60 20 -38 6 21 -13 -1 -20 -29 -9
-24 10 -24 11 -5 18 18 8 18 9 2 9 -10 1 -31 -6 -47 -14 -30 -15 -30 -15 -46
22 -30 71 -46 174 -40 251 5 62 3 72 -10 72 -10 0 -14 6 -11 14 3 8 -1 20 -9
26 -8 7 -14 19 -14 26 0 8 -4 14 -9 14 -4 0 -16 20 -25 44 -20 53 -23 200 -5
270 13 51 7 76 -16 76 -13 0 -15 -30 -15 -225z m1238 -255 c21 -21 32 -42 32
-60 0 -27 -22 -46 -41 -34 -5 3 -9 0 -9 -7 0 -20 -30 11 -52 54 -14 28 -17 42
-9 50 6 6 11 19 11 29 0 24 21 13 68 -32z m76 7 c-4 -28 0 -65 10 -100 9 -30
16 -83 16 -118 0 -57 -1 -61 -15 -43 -9 12 -14 43 -15 87 0 42 -4 67 -11 67
-8 0 -9 20 -4 68 4 37 9 70 12 75 10 16 12 5 7 -36z m-50 -162 c-19 -30 -34
-31 -64 -7 -22 18 -22 18 18 14 22 -2 43 1 46 7 4 6 9 11 12 11 2 0 -3 -11
-12 -25z m66 -180 c6 4 10 1 10 -5 0 -7 -7 -10 -15 -6 -26 10 -123 86 -129
102 -3 7 24 -11 60 -41 36 -31 69 -53 74 -50z m-221 5 c41 -21 51 -40 51 -108
0 -43 0 -43 -22 -28 -12 9 -37 16 -56 16 -35 0 -87 23 -139 63 -38 28 -34 38
12 30 26 -4 41 0 67 21 40 31 39 31 87 6z m-300 -6 c10 -9 -24 -33 -45 -32
-28 3 -28 3 -13 29 7 15 16 18 32 13 12 -3 24 -8 26 -10z m-481 -58 c19 -11
22 -15 10 -16 -25 0 -22 -29 5 -58 l22 -25 -41 6 c-65 10 -154 54 -154 75 0
41 95 51 158 18z m617 -132 c0 -106 -1 -106 -30 -130 -24 -19 -42 -24 -86 -24
-30 0 -63 6 -73 13 -15 11 -16 16 -3 47 8 19 20 60 26 90 l12 56 34 -4 c34 -4
105 29 105 49 0 5 4 9 8 9 4 0 8 -48 7 -106z m463 -43 c-15 -41 -20 -43 -34
-16 -18 35 -18 35 6 35 14 0 20 7 21 23 0 21 1 21 8 2 5 -11 4 -31 -1 -44z
m-1027 -23 c13 -23 1 -23 -36 2 -51 34 -52 22 -2 -28 26 -26 47 -51 47 -55 0
-11 -33 -8 -63 6 -29 13 -37 26 -43 71 -2 16 -6 31 -8 33 -3 3 1 11 7 18 10
11 19 9 50 -8 22 -12 43 -30 48 -39z m277 21 c32 17 33 14 11 -24 -14 -22 -20
-46 -17 -65 3 -17 0 -30 -5 -30 -5 0 -6 -7 -3 -16 3 -8 2 -12 -3 -9 -6 3 -10
13 -9 23 0 9 -7 41 -16 71 -16 58 -12 83 8 55 10 -13 17 -14 34 -5z m297 -139
c26 -51 33 -77 14 -50 -8 11 -9 6 -5 -23 l5 -38 -62 57 c-34 31 -71 60 -82 64
-16 7 -11 9 20 10 22 0 49 7 59 15 11 8 21 15 23 15 1 0 14 -22 28 -50z m180
-258 c9 -51 15 -96 12 -99 -11 -11 -45 82 -40 110 5 27 -12 106 -44 199 -18
51 -13 69 12 48 12 -10 16 -9 22 6 5 12 10 -18 14 -76 3 -52 14 -137 24 -188z
m-810 101 c-9 -37 -23 -53 -46 -53 -25 0 -24 7 7 47 31 41 49 43 39 6z m-275
-568 c26 -27 30 -35 16 -35 -9 0 -32 10 -51 23 -26 18 -32 26 -23 35 17 17 20
16 58 -23z m205 -76 l20 0 -20 -9 c-25 -11 -98 -12 -122 -3 -14 6 -9 9 22 14
22 4 49 5 60 3 11 -2 29 -4 40 -5z m616 -808 c18 -14 30 -17 52 -10 34 10 52
3 39 -14 -5 -7 -13 -26 -16 -42 -6 -26 0 -38 38 -83 26 -30 48 -68 52 -87 9
-49 1 -192 -12 -205 -8 -8 -9 -2 -6 20 5 33 1 35 -31 18 -12 -6 -39 -15 -59
-18 -34 -7 -38 -5 -38 14 0 46 12 65 49 77 20 7 44 17 53 24 16 11 15 15 -18
53 -20 23 -40 42 -46 42 -5 0 -35 16 -66 34 -32 19 -68 38 -82 41 -14 3 -30
17 -37 30 -6 14 -8 23 -3 20 4 -2 11 14 14 37 4 23 12 48 18 55 16 19 72 16
99 -6z m-681 -180 c0 -12 -20 -25 -27 -18 -7 7 6 27 18 27 5 0 9 -4 9 -9z
m427 -38 c-3 -10 -5 -2 -5 17 0 19 2 27 5 18 2 -10 2 -26 0 -35z m-418 -33 c0
-10 -3 -8 -9 5 -12 27 -12 43 0 25 5 -8 9 -22 9 -30z m722 -30 c-2 -42 -5 -50
-15 -39 -17 18 -9 114 8 100 6 -5 10 -30 7 -61z m-130 10 c72 -27 100 -55 88
-87 -6 -17 -5 -44 2 -82 17 -83 -18 -337 -52 -380 -13 -16 -32 -41 -42 -55
-12 -17 -27 -26 -44 -26 -26 0 -26 1 -7 14 10 8 16 17 13 20 -3 4 -16 -2 -29
-12 -29 -24 -64 -17 -79 14 -25 56 -17 58 97 22 19 -5 34 -8 35 -6 1 1 13 16
27 31 13 15 18 26 10 23 -26 -10 -67 35 -126 139 -71 125 -74 135 -82 277 -8
133 -13 125 80 127 36 1 78 -7 109 -19z m-326 -14 l40 -12 7 -84 c4 -47 15
-116 23 -154 8 -38 18 -112 21 -165 l6 -96 -42 -25 c-34 -20 -56 -25 -115 -26
-63 -1 -77 2 -94 20 -29 32 -89 220 -99 312 -5 44 -15 91 -22 104 -7 12 -16
36 -20 52 -8 26 -6 30 31 48 75 39 186 50 264 26z m-259 -365 c7 -31 13 -65
14 -75 0 -19 -1 -19 -21 -1 -24 23 -99 133 -99 147 0 6 6 5 15 -2 11 -9 19 -8
37 4 20 15 23 14 31 0 5 -9 15 -42 23 -73z"/>
<path d="M1342 5790 c0 -19 2 -27 5 -17 2 9 2 25 0 35 -3 9 -5 1 -5 -18z"/>
<path d="M1416 5785 c4 -8 10 -15 15 -15 4 0 6 7 3 15 -4 8 -10 15 -15 15 -4
0 -6 -7 -3 -15z"/>
<path d="M1165 5745 c-29 -73 -29 -74 0 -27 14 23 25 50 23 60 -2 10 -11 -3
-23 -33z"/>
<path d="M986 5677 c3 -10 9 -15 12 -12 3 3 0 11 -7 18 -10 9 -11 8 -5 -6z"/>
<path d="M1330 5679 c0 -5 5 -7 10 -4 6 3 10 8 10 11 0 2 -4 4 -10 4 -5 0 -10
-5 -10 -11z"/>
<path d="M252 5640 c0 -19 2 -27 5 -17 2 9 2 25 0 35 -3 9 -5 1 -5 -18z"/>
<path d="M1126 5653 c-6 -14 -5 -15 5 -6 7 7 10 15 7 18 -3 3 -9 -2 -12 -12z"/>
<path d="M1103 5618 c-5 -7 -11 -33 -12 -58 -1 -25 -5 -54 -8 -65 -3 -11 -2
-17 2 -13 7 7 35 148 30 148 -2 0 -7 -6 -12 -12z"/>
<path d="M640 5600 c0 -5 4 -10 10 -10 5 0 14 -15 19 -32 5 -18 10 -25 10 -16
1 25 -17 68 -29 68 -5 0 -10 -4 -10 -10z"/>
<path d="M1420 5600 c0 -5 5 -10 10 -10 6 0 10 5 10 10 0 6 -4 10 -10 10 -5 0
-10 -4 -10 -10z"/>
<path d="M1162 5510 c0 -14 2 -19 5 -12 2 6 2 18 0 25 -3 6 -5 1 -5 -13z"/>
<path d="M681 5501 c0 -14 7 -34 18 -45 25 -28 36 -66 19 -66 -20 0 -35 13
-41 35 -4 15 -5 14 -4 -5 2 -22 11 -28 67 -45 63 -20 123 -25 137 -12 13 13
33 7 34 -10 0 -14 2 -13 9 5 5 12 13 22 18 22 4 0 6 16 4 35 -4 32 -6 34 -31
27 -14 -4 -58 -7 -98 -6 -83 1 -119 19 -126 61 -4 26 -4 26 -6 4z m246 -93
c-3 -8 -6 -5 -6 6 -1 11 2 17 5 13 3 -3 4 -12 1 -19z"/>
<path d="M978 5513 c7 -3 16 -2 19 1 4 3 -2 6 -13 5 -11 0 -14 -3 -6 -6z"/>
<path d="M1090 5420 c-8 -5 -10 -10 -5 -10 6 0 17 5 25 10 8 5 11 10 5 10 -5
0 -17 -5 -25 -10z"/>
<path d="M450 5416 c0 -2 13 -6 29 -8 17 -2 28 -1 25 4 -5 8 -54 12 -54 4z"/>
<path d="M920 5326 c0 -15 21 -56 29 -56 5 0 3 14 -5 30 -14 27 -24 38 -24 26z"/>
<path d="M800 5312 c0 -6 12 -15 26 -18 16 -4 23 -11 20 -21 -3 -8 -1 -11 4
-8 17 10 11 35 -8 35 -10 0 -23 5 -30 12 -9 9 -12 9 -12 0z"/>
<path d="M875 5270 c4 -6 11 -8 16 -5 14 9 11 15 -7 15 -8 0 -12 -5 -9 -10z"/>
<path d="M572 5080 c0 -14 2 -19 5 -12 2 6 2 18 0 25 -3 6 -5 1 -5 -13z"/>
<path d="M0 4443 l0 -248 43 90 c41 87 42 93 42 190 0 87 -4 107 -27 158 -16
33 -33 57 -42 57 -14 0 -16 -30 -16 -247z"/>
<path d="M790 3761 c0 -5 -3 -16 -6 -24 -4 -11 8 -20 40 -32 25 -10 44 -21 41
-25 -5 -8 103 -50 126 -49 8 0 2 5 -12 10 -15 6 -29 18 -32 27 -3 9 -8 25 -12
35 -6 14 -3 16 11 11 11 -3 8 1 -6 10 -24 14 -26 14 -38 -15 -16 -37 -26 -37
-19 0 5 25 2 30 -21 39 -50 19 -72 23 -72 13z"/>
<path d="M3 3608 c2 -22 31 -61 40 -52 2 3 12 -7 22 -22 14 -22 15 -28 4 -36
-11 -8 -11 -9 1 -5 17 4 46 -28 51 -57 4 -20 17 -29 64 -42 22 -7 31 -17 36
-43 8 -38 23 -51 60 -51 32 0 42 9 28 27 -17 20 -34 16 -18 -4 13 -16 12 -17
-3 -5 -10 8 -16 17 -15 22 2 8 -57 73 -121 134 -25 23 -47 55 -54 78 -19 63
-99 110 -95 56z m167 -189 c0 -18 -35 -5 -38 14 -3 16 -1 17 17 7 12 -6 21
-15 21 -21z m72 -74 c3 -13 1 -22 -3 -19 -9 5 -13 44 -5 44 2 0 6 -11 8 -25z"/>
<path d="M42 3520 c0 -14 2 -19 5 -12 2 6 2 18 0 25 -3 6 -5 1 -5 -13z"/>
<path d="M470 3271 c0 -6 15 -14 32 -19 38 -10 46 -35 49 -162 1 -59 3 -67 9
-40 8 40 17 27 24 -35 2 -22 3 12 1 75 -2 64 -7 123 -10 132 -5 14 1 16 44 14
63 -3 101 -33 101 -81 0 -17 3 -34 6 -37 10 -11 40 3 53 25 8 12 10 19 6 15
-4 -4 -15 7 -24 25 -9 17 -36 45 -61 62 -41 27 -54 30 -137 33 -62 3 -93 0
-93 -7z m211 -28 c13 -15 12 -15 -8 -4 -24 12 -29 21 -14 21 5 0 15 -7 22 -17z"/>
</g>
</svg>
