<?xml version="1.0" standalone="no"?>
<!DOCTYPE svg PUBLIC "-//W3C//DTD SVG 20010904//EN"
 "http://www.w3.org/TR/2001/REC-SVG-20010904/DTD/svg10.dtd">
<svg version="1.0" xmlns="http://www.w3.org/2000/svg"
 width="393.000000pt" height="842.000000pt" viewBox="0 0 393.000000 842.000000"
 preserveAspectRatio="xMidYMid meet">

<g transform="translate(0.000000,842.000000) scale(0.100000,-0.100000)"
fill="#000000" stroke="none">
<path d="M2190 6405 c0 -349 2 -395 15 -395 9 0 41 -25 72 -55 31 -30 61 -55
66 -55 6 0 8 53 5 133 -3 72 -3 104 -1 70 4 -72 20 -84 25 -20 l3 42 22 -22
22 -22 16 22 c15 22 15 22 -27 28 l-43 6 47 1 c36 2 50 7 58 21 18 35 11 40
-67 44 l-78 3 86 2 c94 2 99 5 99 64 0 16 9 43 21 59 l20 28 -163 3 -163 3 -3
218 c-2 184 -5 217 -17 217 -13 0 -15 -53 -15 -395z"/>
<path d="M2240 6595 l0 -204 165 -3 165 -3 50 51 c40 40 50 57 50 83 0 32 1
33 35 29 l35 -4 -6 35 c-10 62 -11 64 -52 58 -20 -3 -93 -6 -161 -7 l-124 -1
-43 42 c-38 38 -44 49 -44 86 0 42 0 43 -35 43 l-35 0 0 -205z"/>
<path d="M2850 6785 c0 -20 -40 -35 -93 -35 l-41 0 35 -36 c55 -57 87 -77 114
-70 24 6 25 10 25 81 0 68 -2 75 -20 75 -11 0 -20 -7 -20 -15z"/>
<path d="M2900 6729 c0 -69 1 -71 23 -65 12 3 25 6 30 6 4 0 7 29 7 65 l0 65
-30 0 -30 0 0 -71z"/>
<path d="M2988 6731 c-2 -58 0 -71 14 -80 10 -6 17 -15 15 -19 -1 -4 7 -19 18
-33 15 -19 26 -24 45 -19 l25 6 -23 8 c-15 5 -21 13 -18 22 4 10 0 14 -11 12
-31 -5 -26 30 6 46 46 24 55 20 71 -32 15 -45 17 -47 56 -50 l41 -3 6 77 c4
42 7 90 7 106 l0 28 -124 0 -124 0 -4 -69z"/>
<path d="M3262 6693 c-1 -62 1 -113 6 -113 4 0 17 -3 30 -6 22 -6 22 -6 22
110 0 96 -3 116 -15 116 -12 0 -15 -18 -15 -105 0 -139 -18 -137 -23 3 l-3
107 -2 -112z"/>
<path d="M3330 6681 c0 -86 3 -121 13 -124 8 -3 6 -10 -8 -21 l-20 -17 20 10
c11 5 35 21 54 35 19 14 40 26 46 26 6 0 41 18 78 40 36 22 70 40 74 39 4 -1
27 -1 51 0 l42 1 0 65 0 65 -175 0 -175 0 0 -119z"/>
<path d="M2876 6599 c7 -11 39 -16 59 -9 15 5 9 8 -22 11 -23 3 -40 1 -37 -2z"/>
<path d="M3145 6570 c3 -5 8 -10 11 -10 2 0 4 5 4 10 0 6 -5 10 -11 10 -5 0
-7 -4 -4 -10z"/>
<path d="M3034 6548 c-6 -10 77 -10 93 0 6 4 -11 8 -38 8 -27 0 -52 -3 -55 -8z"/>
<path d="M3288 6513 c7 -3 16 -2 19 1 4 3 -2 6 -13 5 -11 0 -14 -3 -6 -6z"/>
<path d="M2685 6500 c-3 -6 1 -7 9 -4 18 7 21 14 7 14 -6 0 -13 -4 -16 -10z"/>
<path d="M3570 6350 c0 -5 4 -10 9 -10 16 0 69 -115 91 -197 12 -45 28 -90 36
-100 12 -16 13 -13 14 30 0 40 -3 47 -20 47 -19 0 -20 7 -20 110 l0 110 -36 0
c-19 0 -44 5 -55 10 -13 7 -19 7 -19 0z"/>
<path d="M2595 6220 c-3 -5 -28 -21 -56 -37 -42 -22 -50 -31 -46 -50 3 -18 0
-23 -18 -23 -15 0 -25 -8 -29 -22 -11 -42 -7 -58 14 -58 14 0 20 -7 21 -22 1
-18 2 -19 6 -5 5 20 23 13 23 -9 0 -37 -59 -3 -88 51 -10 18 -11 18 -18 -9 -4
-16 -7 -46 -8 -65 l-1 -36 61 -3 62 -3 6 33 c4 18 11 57 15 86 5 29 23 82 40
117 16 36 28 65 26 65 -2 0 -6 -4 -10 -10z"/>
<path d="M2631 6024 c0 -11 3 -14 6 -6 3 7 2 16 -1 19 -3 4 -6 -2 -5 -13z"/>
<path d="M3694 5898 c-1 -102 2 -128 12 -128 11 0 14 22 14 98 0 54 -4 102 -9
108 -5 5 -11 18 -13 29 -2 11 -4 -37 -4 -107z"/>
<path d="M2632 5975 c0 -16 2 -22 5 -12 2 9 2 23 0 30 -3 6 -5 -1 -5 -18z"/>
<path d="M2770 5927 c-14 -17 -19 -28 -12 -24 6 5 12 4 12 -2 0 -6 9 -2 21 10
28 28 55 21 52 -14 -1 -15 2 -25 6 -23 4 3 20 -2 35 -10 l29 -14 -7 32 c-11
55 -30 75 -73 76 -31 0 -42 -5 -63 -31z m120 -27 c0 -5 -4 -10 -10 -10 -5 0
-10 5 -10 10 0 6 5 10 10 10 6 0 10 -4 10 -10z"/>
<path d="M3134 5950 c-32 -12 -41 -32 -12 -25 17 4 27 0 36 -15 11 -18 10 -24
-10 -41 l-23 -20 22 6 c13 4 28 3 35 -1 6 -4 24 -8 40 -9 25 -2 28 0 28 28 0
24 -3 28 -12 19 -17 -17 -48 -15 -48 4 0 12 9 14 40 11 21 -2 46 -10 55 -17
11 -9 18 -10 28 -1 8 6 18 7 22 3 5 -4 5 -2 1 5 -4 7 -13 10 -21 7 -7 -3 -24
0 -37 7 -13 7 -29 14 -36 15 -8 1 -21 9 -30 16 -20 17 -48 19 -78 8z"/>
<path d="M2376 5893 c4 -10 10 -44 13 -75 l6 -56 27 23 c16 13 23 27 18 30
-18 11 -10 24 18 28 22 3 19 5 -13 7 l-40 3 44 6 c33 5 46 11 52 29 8 21 7 22
-62 22 -64 0 -70 -2 -63 -17z"/>
<path d="M2310 5840 c-14 -11 -41 -20 -60 -21 -30 -2 -31 -3 -7 -6 22 -4 27
-9 27 -34 0 -28 3 -30 31 -27 31 3 32 4 33 56 0 28 1 52 1 52 0 0 -11 -9 -25
-20z"/>
<path d="M2230 5685 c0 -68 -2 -75 -20 -75 -18 0 -20 -7 -20 -55 l0 -54 63 -3
62 -3 3 -57 3 -58 -66 0 -65 0 0 -260 0 -260 50 0 50 0 0 -1415 0 -1415 695 0
695 0 0 160 0 160 128 2 127 2 -124 3 c-123 4 -124 3 -153 -23 -33 -32 -43
-28 -28 11 13 34 0 105 -30 167 l-20 42 22 78 c13 43 28 78 34 78 16 0 61 -51
73 -83 7 -17 15 -25 23 -21 6 4 8 3 5 -3 -3 -5 -1 -42 5 -82 10 -66 9 -75 -9
-99 -39 -54 -43 -52 81 -52 l116 0 0 505 c0 309 -4 505 -9 505 -6 0 -13 -5
-17 -11 -3 -6 -19 -9 -35 -5 -25 5 -30 2 -35 -22 -37 -158 -71 -267 -138 -437
-19 -49 -35 -100 -36 -111 0 -12 -9 -32 -20 -45 -11 -13 -19 -18 -18 -11 5 25
-49 54 -149 81 -97 26 -98 27 -104 61 -4 19 -7 29 -8 22 0 -7 -5 -10 -11 -7
-5 3 -10 -3 -10 -14 0 -10 3 -21 8 -24 4 -2 1 -2 -5 -1 -7 2 -13 0 -13 -4 0
-5 -27 -13 -59 -20 -32 -7 -65 -19 -72 -28 -7 -8 -15 -11 -18 -6 -10 15 -59
23 -63 10 -3 -7 -10 -8 -17 -4 -10 7 -10 10 -1 16 7 5 -8 11 -38 15 -54 7 -55
9 -68 78 -5 31 -4 37 12 37 10 0 28 10 41 22 l23 22 16 -22 c22 -31 52 -29 60
6 3 15 9 37 14 50 9 22 9 22 -73 22 -73 0 -87 -3 -117 -25 -43 -32 -121 -34
-212 -5 -34 11 -91 20 -125 20 -71 0 -77 5 -118 83 l-29 55 70 78 c54 60 81
102 114 174 23 52 46 99 51 104 5 5 43 10 86 11 43 0 86 6 96 11 17 10 17 11
-3 29 -28 25 -26 30 21 44 23 7 39 14 37 16 -2 2 -42 -7 -88 -20 -47 -14 -93
-25 -102 -25 -25 0 -37 30 -44 102 -3 35 -14 97 -24 138 -19 73 -37 233 -40
354 -1 65 6 76 53 76 16 0 63 15 105 33 70 29 86 32 169 31 73 -2 102 -6 134
-23 26 -14 49 -19 62 -15 12 4 59 8 103 8 67 1 86 5 104 21 17 14 24 16 27 7
3 -7 24 -36 47 -65 23 -28 64 -90 91 -136 28 -46 68 -105 91 -130 68 -77 70
-84 28 -126 -20 -20 -56 -45 -80 -55 -59 -26 -193 -56 -279 -64 -38 -4 -91
-11 -117 -17 -46 -10 -46 -11 -41 -45 5 -32 3 -35 -38 -54 -55 -25 -36 -26 23
-2 54 23 180 52 358 84 62 10 159 57 208 99 18 16 36 29 39 29 4 0 33 -18 66
-41 32 -23 60 -39 63 -37 2 3 7 39 10 81 l7 77 -46 0 c-36 0 -49 4 -57 20 -10
19 -8 20 35 20 56 0 57 -7 -26 170 -70 149 -83 205 -77 322 8 136 66 244 178
330 l35 27 -127 1 -128 0 0 245 c0 238 1 245 20 245 19 0 20 7 20 225 0 195
-2 225 -15 225 -23 0 -29 -25 -16 -76 18 -70 15 -217 -5 -270 -9 -24 -21 -44
-25 -44 -5 0 -9 -6 -9 -14 0 -7 -6 -19 -14 -26 -8 -6 -12 -18 -9 -26 3 -8 -1
-14 -11 -14 -13 0 -15 -10 -10 -72 6 -77 -10 -180 -40 -251 -16 -37 -16 -37
-46 -22 -16 8 -37 15 -47 14 -16 0 -16 -1 2 -9 19 -7 19 -8 -5 -18 -28 -11
-50 -4 -29 9 22 14 2 10 -38 -6 -19 -8 -43 -15 -53 -15 -9 0 -30 -10 -45 -22
-27 -21 -29 -21 -56 -5 l-29 16 0 -57 c0 -37 3 -52 9 -43 6 10 9 2 9 -23 0
-39 -12 -56 -22 -30 -3 8 -10 13 -15 10 -5 -3 -14 1 -21 9 -7 8 -16 13 -20 10
-5 -3 -12 0 -16 6 -4 8 -3 9 4 5 7 -4 12 -1 12 9 0 11 -5 15 -14 12 -21 -8
-47 52 -38 86 4 15 10 27 15 27 30 1 37 -1 37 -10 0 -5 -7 -7 -15 -4 -12 5
-14 0 -9 -27 10 -56 14 -65 23 -50 6 9 11 2 15 -23 4 -19 12 -38 18 -42 8 -5
9 -1 3 12 -5 10 -13 49 -18 85 -9 59 -13 67 -38 76 -26 10 -28 9 -34 -18 -4
-16 -11 -31 -16 -34 -12 -8 -11 22 1 46 9 16 7 19 -14 19 -26 0 -26 0 -53 110
-8 30 -14 35 -42 38 -32 3 -32 3 -16 -21 18 -28 38 -90 26 -83 -5 3 -19 -6
-31 -19 -23 -25 -80 -35 -80 -15 0 6 -4 10 -10 10 -5 0 -10 -7 -10 -15 0 -14
-3 -14 -30 0 -39 20 -48 19 -52 -7 -5 -34 -47 -36 -78 -3 -27 28 -57 32 -86
10 -45 -34 -45 -12 0 41 18 21 34 42 35 47 3 13 -29 66 -45 75 -13 7 -12 16 9
74 14 36 32 79 41 97 15 28 6 46 -10 20 -9 -16 -24 9 -24 42 0 15 -7 32 -15
39 -13 10 -15 9 -15 -9 0 -27 -91 -75 -127 -66 -22 5 -24 11 -22 45 3 37 0 42
-34 60 -20 11 -43 20 -51 20 -8 0 -17 15 -20 34 -7 34 0 66 14 66 4 0 11 10
14 23 8 28 72 70 97 62 22 -7 66 19 50 29 -6 4 -20 2 -32 -4 -11 -7 -23 -9
-27 -6 -3 3 0 6 6 6 7 0 12 16 12 40 0 39 -1 40 -27 33 -50 -13 -161 -7 -188
11 l-25 16 0 -75z m195 -437 c5 -48 4 -68 -4 -68 -7 0 -11 -25 -11 -67 -1 -44
-6 -75 -15 -87 -14 -18 -15 -14 -15 43 0 35 7 88 16 118 11 37 14 72 10 102
-4 28 -3 41 3 36 5 -6 12 -40 16 -77z m137 35 c6 -7 2 -25 -11 -50 -21 -43
-51 -74 -51 -54 0 7 -4 10 -9 7 -18 -12 -41 7 -41 33 1 30 11 45 60 85 32 26
35 27 39 10 2 -10 7 -24 13 -31z m-56 -151 l37 4 -23 -18 c-30 -25 -45 -23
-66 10 -15 23 -15 25 -1 13 10 -8 31 -12 53 -9z m18 -96 c-6 -16 -103 -92
-129 -102 -8 -4 -15 -1 -15 6 0 6 4 9 10 5 5 -3 37 19 72 49 72 63 69 61 62
42z m173 -92 c27 -20 42 -25 68 -21 46 8 50 -2 12 -30 -52 -40 -104 -63 -139
-63 -19 0 -44 -7 -56 -16 -22 -15 -22 -15 -21 33 1 65 9 82 50 104 44 24 46
24 86 -7z m273 -3 c13 -26 13 -26 -12 -28 -39 -3 -65 31 -30 40 29 8 31 7 42
-12z m555 -43 c43 -19 32 -45 -32 -73 -31 -14 -74 -28 -97 -32 l-41 -6 23 25
c26 29 29 58 5 58 -23 0 -11 10 34 25 47 17 75 18 108 3z m-735 -47 c0 -20 71
-53 105 -49 l34 4 12 -56 c6 -30 18 -71 26 -90 13 -31 12 -36 -3 -47 -10 -7
-43 -13 -73 -13 -44 0 -62 5 -86 24 -29 24 -30 24 -30 130 -1 58 3 106 7 106
4 0 8 -4 8 -9z m-449 -121 c23 0 23 0 4 -36 l-14 -28 -14 33 c-8 19 -12 43 -8
55 5 21 6 21 9 -1 2 -15 10 -23 23 -23z m1098 -28 c-5 -12 -8 -26 -7 -30 8
-31 -40 -72 -84 -72 -27 0 -22 10 29 62 50 50 49 62 -2 28 -36 -24 -46 -25
-39 -5 4 8 24 26 46 39 47 28 72 18 57 -22z m-335 -42 c-9 -30 -16 -63 -16
-72 1 -10 -3 -20 -9 -23 -5 -3 -6 1 -3 9 3 9 2 16 -3 16 -5 0 -8 13 -5 30 3
19 -4 43 -17 66 -23 39 -24 38 26 17 7 -3 16 2 19 12 4 9 10 13 15 8 5 -5 1
-33 -7 -63z m-227 -71 c30 0 34 -2 18 -9 -11 -4 -48 -33 -82 -64 l-62 -57 5
38 c4 29 3 34 -5 23 -19 -27 -12 -1 15 51 25 50 25 50 49 35 13 -9 41 -16 62
-17z m-231 -18 c24 20 29 1 11 -49 -32 -93 -49 -172 -44 -199 5 -28 -32 -129
-40 -107 -2 6 5 62 17 124 11 63 20 145 20 184 1 55 3 67 11 53 8 -14 14 -16
25 -6z m788 -164 c31 -40 32 -47 7 -47 -23 0 -37 16 -46 53 -10 37 8 35 39 -6z
m294 -539 c9 -9 3 -17 -23 -35 -19 -13 -42 -23 -51 -23 -14 0 -10 8 16 35 38
39 41 40 58 23z m-153 -98 c23 0 27 -3 15 -10 -17 -11 -84 -13 -120 -3 l-25 7
30 7 c17 4 39 5 50 3 11 -2 34 -4 50 -4z m-627 -803 c6 -7 14 -32 18 -55 3
-23 10 -39 14 -37 5 3 3 -6 -3 -20 -7 -13 -23 -27 -37 -30 -14 -3 -50 -22 -82
-41 -31 -18 -61 -34 -66 -34 -6 0 -26 -19 -46 -42 -33 -38 -34 -42 -18 -53 9
-7 33 -17 53 -24 37 -12 49 -31 49 -77 0 -19 -4 -21 -37 -14 -21 3 -48 12 -60
18 -32 17 -36 15 -31 -18 3 -22 2 -28 -6 -20 -13 13 -21 156 -12 205 4 19 26
57 52 87 38 45 44 57 38 83 -3 16 -11 35 -16 42 -13 17 5 24 39 14 22 -7 34
-4 52 10 27 22 83 25 99 6z m159 -224 c-3 -10 -5 -2 -5 17 0 19 2 27 5 18 2
-10 2 -26 0 -35z m451 28 c3 -8 -1 -12 -9 -9 -7 2 -15 10 -17 17 -3 8 1 12 9
9 7 -2 15 -10 17 -17z m-742 -130 c-9 -11 -12 -4 -16 35 -7 68 13 95 21 28 4
-30 2 -55 -5 -63z m715 78 c-5 -13 -10 -19 -10 -12 -1 15 10 45 15 40 3 -2 0
-15 -5 -28z m-426 -15 c19 -5 20 -11 13 -122 -8 -142 -11 -152 -82 -277 -59
-104 -100 -149 -126 -139 -8 3 -3 -8 10 -23 14 -15 26 -30 27 -31 1 -2 16 1
35 6 114 36 122 34 97 -22 -15 -31 -50 -38 -79 -14 -13 10 -26 16 -29 12 -3
-3 3 -12 13 -20 19 -13 19 -14 -7 -14 -17 0 -32 9 -44 26 -10 14 -29 39 -42
55 -34 43 -69 297 -52 380 7 38 8 65 2 82 -8 20 -6 29 13 46 49 46 179 75 251
55z m399 -47 c53 -25 55 -26 47 -55 -5 -16 -14 -40 -21 -52 -7 -13 -17 -60
-22 -104 -10 -92 -70 -280 -99 -312 -17 -18 -31 -21 -94 -20 -59 1 -81 6 -115
26 l-42 25 6 96 c3 53 13 127 21 165 8 38 19 107 23 154 l7 84 40 13 c62 20
183 10 249 -20z m102 -276 c8 7 14 7 14 1 0 -14 -75 -124 -99 -147 -20 -18
-21 -18 -21 1 1 21 24 120 35 147 7 16 9 17 32 2 19 -13 27 -14 39 -4z"/>
<path d="M2582 5730 c0 -19 2 -27 5 -17 2 9 2 25 0 35 -3 9 -5 1 -5 -18z"/>
<path d="M2496 5725 c-3 -8 -1 -15 3 -15 5 0 11 7 15 15 3 8 1 15 -3 15 -5 0
-11 -7 -15 -15z"/>
<path d="M2741 5715 c0 -11 11 -38 24 -60 32 -51 32 -42 1 26 -14 30 -25 45
-25 34z"/>
<path d="M2585 5620 c3 -5 8 -10 11 -10 2 0 4 5 4 10 0 6 -5 10 -11 10 -5 0
-7 -4 -4 -10z"/>
<path d="M2935 5619 c-4 -6 -5 -12 -2 -15 2 -3 7 2 10 11 7 17 1 20 -8 4z"/>
<path d="M2790 5601 c0 -6 4 -13 10 -16 6 -3 7 1 4 9 -7 18 -14 21 -14 7z"/>
<path d="M3672 5580 c0 -19 2 -27 5 -17 2 9 2 25 0 35 -3 9 -5 1 -5 -18z"/>
<path d="M2825 5500 c7 -39 16 -74 20 -78 4 -4 5 2 2 13 -4 11 -7 42 -9 68 -1
26 -7 52 -13 57 -9 8 -9 -7 0 -60z"/>
<path d="M2490 5540 c0 -5 5 -10 10 -10 6 0 10 5 10 10 0 6 -4 10 -10 10 -5 0
-10 -4 -10 -10z"/>
<path d="M3260 5524 c-6 -14 -10 -33 -9 -42 0 -9 5 -2 10 16 5 17 14 32 19 32
6 0 10 5 10 10 0 20 -21 9 -30 -16z"/>
<path d="M2762 5450 c0 -14 2 -19 5 -12 2 6 2 18 0 25 -3 6 -5 1 -5 -13z"/>
<path d="M2938 5453 c7 -3 16 -2 19 1 4 3 -2 6 -13 5 -11 0 -14 -3 -6 -6z"/>
<path d="M3241 5438 c-2 -42 -40 -61 -124 -62 -40 -1 -84 2 -98 6 -25 7 -27 5
-31 -27 -2 -19 0 -35 4 -35 5 0 13 -10 18 -22 7 -18 9 -19 9 -5 1 17 21 23 34
10 14 -13 74 -8 137 12 56 17 65 23 67 45 1 19 0 20 -4 5 -6 -22 -21 -35 -41
-35 -18 0 -6 38 20 67 12 13 18 30 15 45 -4 21 -4 21 -6 -4z m-234 -90 c-3 -8
-6 -5 -6 6 -1 11 2 17 5 13 3 -3 4 -12 1 -19z"/>
<path d="M2820 5360 c8 -5 20 -10 25 -10 6 0 3 5 -5 10 -8 5 -19 10 -25 10 -5
0 -3 -5 5 -10z"/>
<path d="M3426 5352 c-3 -5 8 -6 25 -4 16 2 29 6 29 8 0 8 -49 4 -54 -4z"/>
<path d="M2987 5241 c-9 -17 -11 -31 -6 -31 10 0 32 50 25 57 -2 2 -11 -10
-19 -26z"/>
<path d="M3115 5250 c-3 -5 -15 -10 -26 -10 -20 0 -26 -24 -9 -35 5 -3 7 0 4
8 -3 10 4 17 20 21 14 3 26 11 26 16 0 13 -7 13 -15 0z"/>
<path d="M3035 5210 c4 -6 11 -8 16 -5 14 9 11 15 -7 15 -8 0 -12 -5 -9 -10z"/>
<path d="M3352 5020 c0 -14 2 -19 5 -12 2 6 2 18 0 25 -3 6 -5 1 -5 -13z"/>
<path d="M3872 4573 c-23 -51 -27 -71 -27 -158 0 -97 1 -103 42 -190 l43 -90
0 248 c0 217 -2 247 -16 247 -9 0 -26 -24 -42 -57z"/>
<path d="M3085 3695 c-22 -8 -41 -15 -42 -15 -1 0 0 -13 4 -30 7 -38 -3 -39
-19 -1 -12 29 -14 29 -38 15 -14 -9 -17 -13 -6 -10 14 5 17 3 11 -11 -4 -10
-9 -26 -12 -35 -3 -9 -17 -21 -32 -27 -14 -5 -20 -10 -12 -10 23 -1 131 41
126 49 -3 4 16 15 41 25 32 12 44 21 40 32 -3 8 -6 19 -6 24 0 12 -7 11 -55
-6z"/>
<path d="M3868 3551 c-13 -11 -30 -37 -36 -59 -7 -23 -29 -55 -54 -78 -64 -61
-123 -126 -121 -134 1 -5 -5 -14 -15 -22 -15 -12 -16 -11 -3 5 16 20 -1 24
-18 4 -14 -18 -4 -27 28 -27 37 0 52 13 60 51 5 26 14 36 36 43 47 13 60 22
64 42 5 29 34 61 51 57 12 -4 12 -3 1 5 -11 8 -10 14 4 36 10 15 20 25 22 22
9 -9 38 30 40 52 2 28 -25 29 -59 3z m-71 -186 c-7 -16 -37 -21 -37 -5 0 10
32 31 39 25 2 -2 1 -11 -2 -20z m-105 -97 c-6 -6 -7 0 -4 19 5 21 7 23 10 9 2
-10 0 -22 -6 -28z"/>
<path d="M3882 3460 c0 -14 2 -19 5 -12 2 6 2 18 0 25 -3 6 -5 1 -5 -13z"/>
<path d="M3255 3199 c-46 -24 -95 -72 -95 -95 0 -8 -5 -12 -11 -9 -6 4 -5 -2
2 -13 13 -21 43 -34 53 -24 3 3 6 20 6 37 0 48 38 78 101 81 43 2 49 0 44 -14
-3 -9 -8 -68 -10 -132 -2 -63 -1 -97 1 -75 7 62 16 75 24 35 6 -27 8 -19 9 40
3 127 11 152 49 162 58 15 35 28 -51 28 -64 0 -91 -5 -122 -21z m25 -4 c0 -2
-10 -10 -22 -16 -21 -11 -22 -11 -9 4 13 16 31 23 31 12z"/>
</g>
</svg>
